<svg xmlns="http://www.w3.org/2000/svg" width="26.268" height="21.343" viewBox="0 0 26.268 21.343">
  <path id="Icon_awesome-list" data-name="Icon awesome-list" d="M4.1,19.793H.821A.821.821,0,0,0,0,20.614V23.9a.821.821,0,0,0,.821.821H4.1a.821.821,0,0,0,.821-.821V20.614A.821.821,0,0,0,4.1,19.793Zm0-16.418H.821A.821.821,0,0,0,0,4.2V7.479A.821.821,0,0,0,.821,8.3H4.1a.821.821,0,0,0,.821-.821V4.2A.821.821,0,0,0,4.1,3.375Zm0,8.209H.821A.821.821,0,0,0,0,12.4v3.284a.821.821,0,0,0,.821.821H4.1a.821.821,0,0,0,.821-.821V12.4A.821.821,0,0,0,4.1,11.584Zm21.343,9.03H9.03a.821.821,0,0,0-.821.821v1.642a.821.821,0,0,0,.821.821H25.447a.821.821,0,0,0,.821-.821V21.434A.821.821,0,0,0,25.447,20.614Zm0-16.418H9.03a.821.821,0,0,0-.821.821V6.659a.821.821,0,0,0,.821.821H25.447a.821.821,0,0,0,.821-.821V5.017A.821.821,0,0,0,25.447,4.2Zm0,8.209H9.03a.821.821,0,0,0-.821.821v1.642a.821.821,0,0,0,.821.821H25.447a.821.821,0,0,0,.821-.821V13.226A.821.821,0,0,0,25.447,12.4Z" transform="translate(0 -3.375)" fill="#5d9cec"/>
</svg>
